<?xml version="1.0" encoding="utf-8"?>
<!-- Generator: Adobe Illustrator 16.0.3, SVG Export Plug-In . SVG Version: 6.00 Build 0)  -->
<!DOCTYPE svg PUBLIC "-//W3C//DTD SVG 1.1//EN" "http://www.w3.org/Graphics/SVG/1.1/DTD/svg11.dtd">
<svg version="1.1" xmlns="http://www.w3.org/2000/svg" xmlns:xlink="http://www.w3.org/1999/xlink" x="0px" y="0px"
	 width="460.345px" height="544.828px" viewBox="0 0 460.345 544.828" enable-background="new 0 0 460.345 544.828"
	 xml:space="preserve">
<g>
	
		<path fill-rule="evenodd" clip-rule="evenodd" fill="#F9CA55" stroke="#000000" stroke-width="2.6689" stroke-miterlimit="2.6131" d="
		M337.576,451.101c-29.404,26.791-54.715,41.229-108.038,69.201c-49.63-22.574-82.029-44.826-110.125-66.746
		C80.589,423.33,52.7,374.251,50.283,344.15L30.912,57.648c131.219-34.111,270.789-33.333,391.521,2.29l-19.656,283.599
		C400.277,369.218,377.305,419.156,337.576,451.101L337.576,451.101z"/>
	
		<path fill-rule="evenodd" clip-rule="evenodd" fill="#F9CA55" stroke="#000000" stroke-width="2.6689" stroke-miterlimit="2.6131" d="
		M380.297,334.144l17.736-253.251C294.131,47.804,169.672,47.316,54.997,77.416L73.099,333.98
		c1.885,26.666,21.092,67.441,57.91,98.689c22.159,18.813,65.572,50.389,97.635,62.494c36.94-18.689,70.524-41.924,97.147-64.865
		C358.799,400.236,378.293,362.853,380.297,334.144L380.297,334.144z"/>
	
		<path fill-rule="evenodd" clip-rule="evenodd" fill="#F9CA55" stroke="#000000" stroke-width="2.6689" stroke-miterlimit="2.6131" d="
		M321.527,423.613c-25.512,22.006-59.873,46.668-92.885,62.414c-29.483-9.119-73.062-42.74-94.029-60.82
		c-36.574-31.572-51.44-64.619-53.69-95.867L63.145,84.434c109.188-28.67,228.363-28.67,327.393,2.864l-17.57,241.635
		C370.428,361.078,355.479,391.792,321.527,423.613L321.527,423.613z"/>
	
		<line fill="none" stroke="#000000" stroke-width="2.6689" stroke-miterlimit="2.6131" x1="71.308" y1="89.193" x2="74.829" y2="131.403"/>
	<path fill="none" stroke="#000000" stroke-width="2.6689" stroke-miterlimit="2.6131" d="M74.829,131.403
		c104.23-26.053,213.414-23.436,304.044,3.969"/>
	
		<line fill="none" stroke="#000000" stroke-width="2.6689" stroke-miterlimit="2.6131" x1="378.873" y1="135.372" x2="382.764" y2="92.425"/>
	<path fill="none" stroke="#000000" stroke-width="2.6689" stroke-miterlimit="2.6131" d="M382.764,92.425
		c-93.908-28.792-207.921-30.346-311.456-3.231"/>
	<polygon fill-rule="evenodd" clip-rule="evenodd" points="330.498,104.858 306.992,100.976 306.088,112.015 298.432,110.872 
		300.234,81.586 308.055,82.73 307.236,93.979 331.07,97.823 331.852,86.575 339.836,88.091 337.418,117.456 329.639,116.022 
		330.498,104.858 	"/>
	<path fill-rule="evenodd" clip-rule="evenodd" d="M217.044,94.923c-2.863,0-5.158-0.777-6.674-3.313
		c-1.308-2.086-1.308-8.874,0-11.124c1.434-2.618,4.014-3.354,6.145-3.354l33.332,0.042l0.084,7.198l-31.534-0.042
		c-1.556,0-1.595,3.476,0.123,3.476h24.858c2.908,0,5.49,1.762,6.308,4.049c0.899,2.455,0.737,8.018,0,10.309
		c-0.697,2.291-3.32,3.557-6.595,3.557h-32.883l-0.043-7.361h29.284c2.455,0,2.455-3.436,0-3.436H217.044L217.044,94.923z"/>
	<path fill-rule="evenodd" clip-rule="evenodd" d="M197.763,97.849c-0.041-1.594-1.391-2.781-2.866-2.699l-22.119,1.596
		l0.451,10.959l-7.167,0.738l-1.516-28.917l32.931-2.454c4.259-0.324,6.758,2.861,6.961,5.522c0.248,3.148,0.369,7.198-2.088,8.876
		c2.047,1.512,2.578,3.762,2.619,6.912l0.084,7.4l-7.169,0.289L197.763,97.849L197.763,97.849z"/>
	<path fill-rule="evenodd" clip-rule="evenodd" fill="#F9CA55" d="M193.065,88.464c2.824-0.165,2.58-4.54,0-4.296l-21.053,1.595
		l0.246,4.008L193.065,88.464L193.065,88.464z"/>
	<path fill-rule="evenodd" clip-rule="evenodd" d="M124.097,84.622c6.76-1.593,20.6-3.801,27.85-4.337
		c3.316-0.241,5.898,1.475,6.348,4.053c1.066,5.931,1.723,12.063,0.982,20.288c-0.205,2.369-2.252,4.25-4.953,4.824
		c-9.299,2.045-19.743,3.148-27.483,3.885c-1.967,0.205-5.076-1.348-5.609-3.803c-1.354-5.975-1.846-14.316-1.434-20.043
		C119.96,87.364,121.927,85.114,124.097,84.622L124.097,84.622z"/>
	<path fill-rule="evenodd" clip-rule="evenodd" fill="#F9CA55" d="M150.402,102.239c0.941-0.207,1.352-1.227,1.436-1.963
		c0.326-2.254,0.039-8.145-0.494-10.104c-0.162-0.777-0.816-1.27-2.291-1.146c-4.016,0.248-14.622,1.76-19.864,2.904
		c-1.393,0.328-1.928,1.145-2.008,1.883c-0.248,1.922,0.326,7.199,0.818,10.141c0.125,0.699,1.025,1.189,1.719,1.146
		C136.805,104.526,145.16,103.384,150.402,102.239L150.402,102.239z"/>
	<path fill-rule="evenodd" clip-rule="evenodd" d="M266.539,85.841c-1.557-0.039-2.621,0.9-2.742,1.721
		c-0.369,2.412-0.494,5.52-0.494,9.568c0,0.531,0.902,2.004,1.68,2.127c7.043,0.984,20.727,2.209,28.178,2.701l-0.449,7.564
		c-9.789-0.447-20.027-2.002-30.635-2.74c-3.48-0.246-6.018-2.125-6.143-5.479c-0.205-5.523,0.125-13.866,1.105-18.733
		c0.654-2.985,3.523-4.54,6.758-4.459c9.787,0.37,17.568,1.229,30.387,2.946l-0.49,7.526
		C287.469,88.053,275.672,86.21,266.539,85.841L266.539,85.841z"/>
	<path fill-rule="evenodd" clip-rule="evenodd" d="M106.279,88.036c9.91-2.331,11.425,15.256,3.152,17.301l-23.101,5.77
		l1.105,11.369l-7.248,1.92l-2.581-29.611L106.279,88.036L106.279,88.036z"/>
	<path fill-rule="evenodd" clip-rule="evenodd" fill="#F9CA55" d="M106.158,99.556c2.373-0.531,2.049-4.785-0.494-4.254
		l-20.846,5.031l0.49,4.375L106.158,99.556L106.158,99.556z"/>
	<polygon fill-rule="evenodd" clip-rule="evenodd" points="351.248,109.247 350.758,113.991 373.65,119.759 373.039,126.384 
		342.322,119.147 344.984,89.329 375.904,96.812 375.207,103.767 352.189,98.204 351.74,103.235 374.592,108.798 374.018,114.687 
		351.248,109.247 	"/>
	<polyline fill="none" stroke="#000000" stroke-width="2.6689" stroke-miterlimit="2.6131" points="165.336,239.176 
		165.336,214.354 165.363,203.884 165.377,198.812 224.226,198.771 224.189,118.36 	"/>
	<path fill="none" stroke="#000000" stroke-width="2.6689" stroke-miterlimit="2.6131" d="M224.189,118.36
		c-45.788,0-95.959,4.332-149.159,19.184"/>
	<polyline fill="none" stroke="#000000" stroke-width="2.6689" stroke-miterlimit="2.6131" points="75.03,137.544 86.004,288.582 
		165.336,288.582 165.336,259.057 165.336,239.176 	"/>
	<path fill-rule="evenodd" clip-rule="evenodd" d="M165.252,211.936c0-0.533-6.512-1.025-9.75-0.617
		c-8.6,1.023-30.1,7.774-39.191,14.031c-0.203,0.531-0.164,3.516-0.777,4.908c-0.533,1.267-1.883,2.576-3.191,3.148
		c-2.338,1.021-5.039-2.084-6.229-1.635c-1.23,0.447-3.852,1.514-6.678-0.492c-1.269-0.898-1.922-3.433-1.473-5.314
		c0.41-1.352,1.557-2.414,2.458-3.275c0.819-0.816,0.245-3.964,3.194-5.847c2.047-1.307,4.873-0.242,7.045,0.9
		c0.49-0.164,0.818-0.367,1.188-0.693c0.283-0.863,0.736-3.479,1.145-5.524c0.494-2.209,0.658-3.64,1.314-5.685
		c1.639-4.949,5.568-12.064,9.666-15.787c3.232-2.863,8.27-5.152,11.999-4.908c-0.372,0.572-4.997,4.703-6.352,6.547
		c-3.193,4.25-6.139,10.795-7.533,16.355c-0.492,1.882-0.492,2.578-0.164,3.806c3.029-1.352,6.961-2.66,9.256-3.396
		c0.9-2.004,1.393-4.295,2.172-6.135c1.227-2.863,2.008-4.09,3.276-6.092c3.645-5.646,11.344-11.207,17.037-11.086
		c-1.885,1.637-5.816,5.725-7.373,8.178c-1.268,2.049-2.455,4.256-3.357,6.545c-0.777,2.045-1.025,3.559-1.229,5.234
		c2.947-0.855,5.855-1.471,7.738-1.594c1.271-0.695,1.68-2.043,2.379-3.313c2.168-4.049,6.428-8.588,9.133-10.061
		c2.168-1.188,5.363-2.332,7.658-1.594c-2.459,1.84-5.039,4.781-6.186,6.543c-1.188,1.879-3.113,5.521-3.031,7.238
		c2.008,0.164,4.625,0.057,5.775-0.23L165.252,211.936l0.027-10.47L165.252,211.936L165.252,211.936z"/>
	<path fill-rule="evenodd" clip-rule="evenodd" d="M139.172,145.692c3.115-4.334,11.305-10.875,17.613-10.508
		c-3.441,2.984-6.473,6.297-8.602,9.813c-2.787,4.54-5.039,10.227-5.527,14.602c2.086-0.775,7-2.166,9.828-2.781
		c2.496-5.438,5.773-11.452,9.828-14.682c2.906-2.332,7.084-4.338,10.977-3.887c-0.902,1.27-2.377,2.25-3.481,3.273
		c-2.01,1.758-3.4,4.131-4.506,6.541c-0.818,1.801-2.213,7.2-2.254,7.448c2.826-0.041,7.823,0.283,8.887,0.611
		c3.32-4.336,10.568-10.633,19.252-9.202c-3.77,2.045-10.648,8.016-10.238,11.29c5.648,3.641,14.086,11.287,14.453,18.361
		c-3.848-4.006-10.195-7.975-13.391-9.077c-7.658-2.703-16.793-3.07-24.411-1.68c-15.889,2.986-29.938,9.859-43.412,17.918
		c-0.326,2.166-1.516,5.437-2.498,6.541c-0.98,1.104-2.457,2.168-4.053,2.414c-2.006,0.324-4.057-0.49-5.777-1.389
		c-1.105-0.615-4.013,0.162-5.854-0.822c-1.271-0.654-3.237-2.494-2.703-5.396c0.45-2.576,3.03-4.13,3.397-6.585
		c0.535-3.598,3.153-5.155,4.506-5.397c1.475-0.289,2.99,0.203,4.344,0.814c0.574,0.287,1.184,0.779,1.721,0.943
		c0.531-0.164,1.311-0.82,1.762-1.023c0.121-0.41,1.471-7.895,2.207-11.164c0.74-3.275,2.008-6.057,3.072-9.121
		c3.195-9.081,13.064-18.241,20.97-17.752c-0.412,0.574-2.949,2.414-6.473,6.504c-5.691,6.667-7.125,13.743-9.256,25.889
		c4.383-2.045,8.191-3.516,12.164-4.951c0.943-3.76,2.213-7.443,3.77-11C136.512,149.949,137.74,147.696,139.172,145.692
		L139.172,145.692z"/>
	<polygon fill-rule="evenodd" clip-rule="evenodd" fill="#EB2E2E" points="377.855,155.75 231.484,155.875 231.607,198.899 
		374.582,198.819 377.855,155.75 	"/>
	<path fill-rule="evenodd" clip-rule="evenodd" d="M265.123,348.207c-1.021,4.129-1.516,11.084-1.432,11.248
		c2.498-1.023,4.832-1.924,6.879-2.535c0.162-0.248,3.074-6.588,4.385-8.303c3.07-4.746,7.207-8.797,12.246-11.494
		c3.15-1.596,7.002-3.068,10.402-1.801c-4.465,2.127-7.947,5.973-10.035,8.18c-1.926,2.047-4.18,5.07-5.201,8.18
		c-0.164,0.533-0.328,1.637-0.328,1.637c2.09-0.654,8.764-1.637,11.549-2.006c0.328-0.041,1.188-1.881,1.842-2.781
		c0.818-1.104,1.311-1.799,2.621-3.27c3.359-3.641,9.053-7.525,14.58-6.668c-3.029,1.924-6.348,4.99-9.01,9.816
		c-0.367,0.738-0.859,1.762-0.654,2.209c0.818,0.164,4.875,0.082,7.332,0.369c2.824-1.76,5.816-3.314,9.049-4.006
		c3.645-0.822,8.396-0.166,10.281,1.549c-2.213-0.121-4.303,0.287-6.309,1.064c-1.145,0.451-3.439,1.514-4.301,2.988
		c2.172,0.611,5.734,2.943,7.986,4.826c1.555,1.307,3.441,3.188,4.629,4.908c2.992,4.047,3.602,11.326,2.008,13.494
		c-0.453-1.268-0.945-2.533-1.637-3.723c-1.436-2.412-3.691-5.029-5.615-6.459c-9.297-7.076-22.689-7.445-33.619-5.238
		c-9.383,1.926-26.297,5.441-37.354,13.293c0.287,1.395-0.576,3.721-1.842,4.623c-1.68,1.227-4.055-0.449-5.286,0.207
		c-1.68,0.857-3.766,0.324-4.625-0.043c-1.477-0.613-2.457-2.127-2.582-3.887c-0.123-1.391,1.227-3.066,1.514-4.58
		c0.127-0.615-0.529-3.641,2.05-5.193c0.49-0.287,1.963-0.816,2.988-0.654c1.023,0.203,1.844,0.857,2.868,1.021
		c1.557-0.572,2.908-1.227,3.975-1.924c0.818-3.146,1.432-6.789,1.84-10.02L265.123,348.207L265.123,348.207z"/>
	<path fill="none" stroke="#000000" stroke-width="2.6689" stroke-miterlimit="2.6131" d="M256.318,353.236
		c-7.331,3.641-16.914,6.096-25.065,6.422"/>
	
		<line fill="none" stroke="#000000" stroke-width="2.6689" stroke-miterlimit="2.6131" x1="231.253" y1="359.658" x2="231.294" y2="477.326"/>
	<path fill="none" stroke="#000000" stroke-width="2.6689" stroke-miterlimit="2.6131" d="M231.294,477.326
		c34.2-17.34,71.711-45.725,87.686-61.307c25.842-25.154,43.248-50.637,45.908-87.363"/>
	<polyline fill="none" stroke="#000000" stroke-width="2.6689" stroke-miterlimit="2.6131" points="364.889,328.656 
		367.305,295.199 289.615,295.119 	"/>
	<path fill="none" stroke="#000000" stroke-width="2.6689" stroke-miterlimit="2.6131" d="M289.615,295.119
		c0,18.975-6.309,38.631-24.52,52.996"/>
	
		<line fill="none" stroke="#000000" stroke-width="2.6689" stroke-miterlimit="2.6131" x1="265.096" y1="348.115" x2="256.318" y2="353.236"/>
	<path fill-rule="evenodd" clip-rule="evenodd" d="M266.539,391.738c1.229-1.879,2.703-4.623,3.441-5.807
		c2.578-4.131,6.307-7.197,8.85-8.383c3.479-1.678,9.09-2.66,11.584-1.436c-2.742,0.656-4.828,1.926-6.756,3.273
		c-1.967,1.348-5.816,4.867-6.799,6.34c-1.104,1.639-1.842,3.109-2.129,3.885c3.111-0.695,6.842-1.268,8.764-1.268
		c1.395-1.76,5.08-5.969,7.824-7.934c2.209-1.555,6.922-3.109,9.871-1.842c-2.828,0.9-7.824,4.826-9.668,7.648
		c-0.408,0.654-0.777,1.35-0.857,1.719c1.51,0.123,4.379,0.408,5.938,0.613c0.162,0,4.424-2.617,6.348-3.15
		c2.498-0.695,6.594-1.594,9.172,1.146c-1.883,0.039-3.645,0.203-5.035,0.82c-2.006,0.898-2.869,1.551-3.77,2.818
		c3.932,2.084,8.027,4.256,10.445,8.102c0.859,1.348,2.17,4.539,1.432,6.625c-1.229-1.557-2.908-3.068-4.26-3.848
		c-1.924-1.104-3.316-2.166-5.65-3.064c-7.332-2.74-16.914-3.479-24.574-2.455c-9.908,1.268-22.074,6.176-28.299,10.43
		c0.412,1.922-0.529,4.172-1.635,4.701c-2.338,1.188-4.588-0.816-4.999-0.693c-0.615,0.205-2.5,0.859-3.851,0.285
		c-1.35-0.531-2.209-2.904-1.678-4.416c0.408-1.146,2.049-2.781,2.049-2.781c-0.248-2.494,1.389-4.008,3.646-4.295
		c1.266-0.123,2.168,0.859,3.191,1.063c0.942-0.451,1.598-0.775,2.088-1.021c0.574-2.043,1.434-4.133,2.006-5.85
		c0.943-2.904,2.336-5.479,4.098-8.178c2.537-3.889,7.043-7.568,12.408-7.652c-1.637,1.27-2.58,1.965-3.605,3.234
		c-1.76,2.207-3.111,4.211-4.342,6.584c-1.104,2.086-2.127,5.195-2.293,7.934C261.463,393.947,264.492,392.556,266.539,391.738
		L266.539,391.738z"/>
	<path fill-rule="evenodd" clip-rule="evenodd" d="M265.746,413.863c1.393-0.574,2.865-0.982,4.342-0.818
		c-3.441,2.209-6.596,5.439-7.455,9.281c-0.08,0.412-0.08,1.229,0.289,1.475c0.98-0.246,3.48-0.779,4.135-1.104
		c0.412-0.859,1.434-2.209,2.129-3.107c2.457-3.275,5.982-6.545,10.854-5.316c-3.193,1.428-5.037,3.436-6.43,5.971
		c-0.244,0.451-0.408,1.307-0.084,1.307c0.818,0,3.934-0.123,4.385-0.123c1.432-1.268,5.609-3.682,8.479-2.781
		c-1.76,0.779-3.359,2.125-3.891,2.658c-0.287,0.326-0.658,0.738-0.738,1.229c2.539,1.268,4.791,2.701,6.881,4.5
		c1.105,0.939,2.703,2.699,3.686,5.725c-2.459-2.127-10.486-5.93-14.867-6.137c-2.865-0.119-6.428,0.412-8.23,0.822
		c-6.922,1.555-14.051,4.66-20.149,8.139c0.039,1.184-0.166,2.615-1.516,3.721c-0.902,0.734-2.869,1.102-3.603,0.039
		c-0.41-0.57-3.074,0.041-3.646-0.693c0,0-0.697-1.064-0.779-2.334c-0.08-1.348,0.816-2.166,1.557-2.861
		c0.205-0.246,0.166-2.533,1.883-3.313c1.066-0.49,2.132-0.326,3.033,0.244c0.367-0.203,0.654-0.408,0.898-0.57
		c0.207-2.658,0.697-5.115,1.682-7.771c1.35-3.764,5.772-8.346,9.583-8.18c-2.578,2.781-4.668,6.625-5.363,9.813
		c-0.205,1.023-0.287,3.029-0.287,3.971c0.654-0.41,1.801-1.025,2.865-1.432c0.41-0.98,1.596-3.436,2.213-4.541
		C259.154,418.81,262.633,415.13,265.746,413.863L265.746,413.863z"/>
	<path fill-rule="evenodd" clip-rule="evenodd" fill="#EB2E2E" d="M89.921,332.984c0.491,14.234,6.309,31.412,14.294,43.314h119.136
		l-0.244-16.605c-15.317,0-38.7-10.104-47.958-26.625L89.921,332.984L89.921,332.984z"/>
	<path fill="none" stroke="#000000" stroke-width="2.6689" stroke-miterlimit="2.6131" d="M171.825,295.867
		c0,75.664,110.818,75.664,110.818,0.777"/>
	<polyline fill="none" stroke="#000000" stroke-width="2.6689" stroke-miterlimit="2.6131" points="282.643,296.644 
		282.686,205.604 171.825,205.563 171.825,295.867 	"/>
	<path fill-rule="evenodd" clip-rule="evenodd" d="M207.525,259.606c1.311-1.432,2.461-3.315,2.705-4.911
		c0.205-1.307-3.482-1.225-4.833-0.406c-0.738,0.447-1.435,1.35-2.005,2.166c-0.409,0.613-1.883,1.104-2.622,0.41
		c-0.777-0.738,0.613-2.004,0.574-2.781c0-1.307-2.5,0.652-3.646,0.123c-0.777-0.369-0.816-1.553-0.285-2.248
		c0.285-0.371,1.105-0.207,1.474-0.615s0.369-1.021,0.492-1.555c0.164-0.615,0.818-0.9,1.229-1.35
		c1.555-1.514,4.504-4.087,5.078-4.05c1.349,0.125,3.275,0.818,4.462,0.203c0.246-0.117,0.695-0.527,0.287-0.773l-3.193-2.086
		c-0.045-0.656,0.244-1.307,0.732-1.758c1.477-1.309,3.771-0.41,5.697-0.697c1.35-0.205,2.622-0.736,3.602-1.678
		c0.246,0.982-0.369,1.965-0.369,2.988c1.23,1.145,2.499,2.125,3.687,3.23c3.522,3.517,5.038,8.628,5.282,13.126
		c0.205,2.086,0.205,4.215,0.205,7.691c0.574-1.473,0.941-3.642,1.064-5.521c0.531-5.563-0.328-10.51-3.479-14.727
		c-1.271-1.756-2.748-3.434-4.346-4.904c0.166-1.637,1.559-4.418,2.867-3.397c0.863,0.655-0.406,1.635,0.494,2.208
		c0.984,0.615,2.417,0.533,3.03,0.41c1.434-0.367,2.824-0.736,4.135-0.857c0.613-0.043,1.639-0.328,1.844,0.285
		c0.166,0.408-0.285,0.695-0.74,0.859c-0.527,0.164-1.348,0.041-1.801,0.492c-0.365,0.365-0.736,0.773-0.613,1.307
		c0.162,0.613,0.818,0.941,1.473,0.736c2.254-0.652,5.285-1.102,7.577-1.145c1.354,0,1.068,0.98,0.412,1.35
		c-0.449,0.244-1.146,0.449-1.598,0.49c-2.417,0.287-4.217,0.451-3.932,1.842c0.207,0.939,1.719,0.041,2.049,0.732
		c0.367,0.738-0.658,1.148-0.572,1.639c0.242,1.554,3.235,1.228,4.629,0.9c1.021-0.244,2.66-1.062,3.152-0.41
		c0.447,0.57,0.08,1.473-0.492,1.637c-1.475,0.408-4.016,1.145-4.709,1.963c-0.659,0.777,0.123,2.373,0.898,2.453
		c1.762,0.205,3.688,0.205,5.078,0.615c0.533,0.162,0.984,0.531,0.984,1.102c0,0.615-0.617,0.82-1.105,0.984
		c-0.945,0.287-2.539,0.287-3.4,0.654c-0.287,0.121-0.861,0.326-0.777,0.652c0.244,0.615,1.477,0.451,2.498,0.572
		c0.574,0.043,1.68,0.49,1.68,1.105c0,0.655-0.574,0.858-1.598,0.78c-1.598-0.125-3.07,0.078-3.768,0.365
		c-0.207,0.082-1.432,0.244-1.393,0.82c0.084,0.693,1.393,0.244,1.719,0.939c0.289,0.654-0.613,1.023-0.693,1.841
		c0,0.328,0.16,0.49,0.49,0.611c1.064,0.451,2.293,0.408,3.359,0.207c1.102-0.207,1.514,1.266,1.229,1.432
		c-1.434,0.775-4.631-0.043-5.365,0.404c-1.026,0.656,1.719,2.131,1.637,2.459c-0.082,0.365-0.412,0.732-0.656,0.816
		c-1.391,0.531-3.194-0.492-4.219,0.08c-0.859,0.533-0.49,1.88-1.023,2.58c-0.656,0.857-2.131,0.488-2.787,0.98
		c-0.855,0.611-0.898,2.084,0.043,2.984c0.738,0.693,1.434,1.182,2.377,1.635c4.262,2.125,8.684,4.254,12.818,3.967
		c2.131-0.121,5.61-0.246,7.538,0.246c2.498,0.613,5.035,2.536,6.346,3.354c1.064,0.652,2.787,0.818,4.137,0.328
		c0.986-0.328,1.639-1.475,1.436-2.455c-0.615-3.272-6.021-4.297-6.105-7.567c-0.08-3.76-0.406-5.804-1.637-8.181
		c-0.449-0.896-0.531-2.982,0.533-3.27c0.861-0.203,1.145,0.984,1.842,0.699c3.152-1.23,3.277-6.22,6.555-7.162
		c1.924-0.529,8.395-0.613,7.863-1.432c-1.352-1.92-0.738-4.129,0-5.15c0.488-0.654,1.842-1.311,2.375-0.654
		c0.734,0.857-1.105,1.879-0.982,3.148c0.123,1.186,1.842,3.475,0.531,4.703c-0.777,0.737-6.635,0.983-8.355,3.6
		c-1.064,1.595-1.186,2.863,0.082,2.74c1.025-0.121,1.887-1.35,2.824-2.047c1.682-1.224,3.031-1.716,3.977-0.816
		c0.488,0.449-0.166,1.308-1.064,1.552c-0.738,0.246-2.541,2.17-2.051,2.658c0.738,0.777,4.832-2.779,5.857-2.043
		c0.531,0.41-2.008,3.025-1.557,3.723c0.531,0.857,2.254-0.491,2.785,0.164c0.777,0.982-1.352,2.9-2.58,3.759
		c-0.941,0.615-0.572,2.904-1.926,3.6c-1.514,0.736-2.209,2.043-2.045,2.248c0.16,0.328,0.531,0.57,1.102,0.207
		c1.68-1.064,3.77-2.332,4.629-2.004c0.49,0.203-0.201,2.533-0.816,3.637c-0.617,1.107,2.496,0.492,2.045,1.432
		c-0.328,0.695-0.531,1.762-0.328,2.741c0.25,1.268-3.355,1.555-3.684,2.414c-0.367,0.982,0.367,1.227,0.738,1.27
		c2.168,0.324,1.883,2.328,1.021,3.189c-1.145,1.145-3.111,1.592-4.83,1.307c-1.477-0.244-4.793-0.859-6.758-2.332
		c-0.615-0.449-1.518-0.121-1.641,0.492c-0.123,0.695,0.615,1.963,0.941,3.027c0.453,1.594,0.209,3.6-0.326,5.154
		c-1.146,3.229-4.219,5.932-5.08,9.814c-0.205,1.021,0.084,2.291,0.492,3.274c0.902,2.125,2.213,4.13,3.688,5.929
		c0.205,0.572,0.488,1.227,0.244,1.76c-0.326,0.816-2.867,2.578-3.602,3.271c-2.336,2.168-4.342,4.988-4.795,8.057
		c-0.164,1.104-2.537,2.207-4.133,2.66c-1.19,0.322-2.417,0.652-3.401,1.43c-0.123,0.898,0.41,1.678,0.531,2.576
		c0.205,1.555-1.762,2.332-3.277,2.82c-0.693,0.248-1.43,0.453-2.254,0.453c-0.283,0-0.363-0.49-0.324-0.738
		c0.451-2.125,0.859-3.844,1.68-5.6c0.328-0.656,0.859-1.188,1.393-1.639l5.854-4.906l4.59-6.586
		c0.408-0.613,0.572-1.145,0.572-1.596c0-1.27-0.531-2.453-1.434-3.27c-1.146-1.025-2.826-1.188-4.094-1.842
		c-1.641-0.818-4.016-3.109-4.344-3.273c-0.9-0.449-1.431,1.186-1.554,2.127c-0.207,1.434,0.244,2.779,0.205,4.213
		c0,0.654-0.082,1.021-0.412,1.432c-3.846,2.209-8.639,3.025-11.467,6.545c-0.49,0.611-0.939,1.266-1.598,1.719
		c-1.596,1.102-4.254-0.166-5.445,1.551c-0.531,0.779,0.084,1.801-0.121,2.66c-0.123,0.492-1.064,1.146-1.801,1.514
		c-0.984,0.449-2.049,0.695-3.113,0.775c-1.188-0.572-0.449-2.248-0.043-3.436c0.412-1.227,0.986-2.453,1.928-3.271
		c1.393-1.225,3.151-2.779,4.26-3.314c0.939-0.449,2.371-0.449,3.516-0.896c1.188-0.369,2.338-0.898,3.4-1.637
		c1.68-1.063,3.239-2.373,4.178-4.174c1.066-2.043,0.943-4.783-0.408-6.541c-1.229-1.596-2.665-3.148-3.481-4.951
		c-0.453-0.979-0.125-2.332,0.574-3.23c-0.043-0.041-0.533-0.369-0.822-0.285c-5.855,0.244-11.792-0.408-17.236-2.576
		c-1.436-0.574-2.909-2.414-3.932-2.537c-0.941-0.123-1.516,1.063-2.458,1.309c-1.518,0.41-3.48,0.164-5.239,0
		c-2.049-0.205-6.309-1.105-9.379-2.088c-0.492,0.084-1.023,0.164-1.475,0.451c-0.654,0.451-0.777,1.432-0.82,2.25
		c-0.08,1.104,0.246,2.129,0.121,3.271c-0.037,0.574-0.365,1.188-0.201,1.719c0.164,0.656,0.818,0.941,1.268,1.35
		c0.738,0.695,0.861,2.127,0.861,3.271c0,1.268-0.449,2.946,0.615,3.805c0.654,0.531,1.553-0.164,2.375,0
		c0.9,0.162,1.185,1.267,1.226,2.126c0.043,0.98-0.775,3.066-1.31,3.598c-0.369,0.367-0.984,0.082-1.434-0.123
		c-1.186-0.531-2.291-1.389-2.945-2.535c-0.287-0.49-0.287-1.104-0.576-1.635c-0.451-0.9-1.27-1.431-2.088-2.046
		c-0.984-0.735-1.188-2.083-1.352-3.272c-0.123-1.104,0.082-2.168,0.164-3.27c0.203-2.17,0.082-4.381-0.41-6.547
		c-0.369-1.635-1.268-3.273-0.861-4.906c0.205-0.779,0.74-1.514,1.475-1.84c3.973-0.205,7.907-0.861,11.672-2.047l-2.455-2.412
		c-0.617,0-1.105,0.613-1.72,0.613c-0.656,0-1.557-0.939-1.801-1.268c-1.271-1.883-2.09-4.049-2.662-6.258
		c-0.533-0.859-1.189-1.719-2.174-2.125c-0.695-0.289-1.432-0.453-2.168-0.412c-2.049,0.898-3.934,2.66-4.096,4.91
		c-0.041,0.572,0.287,1.065,0.205,1.637c-0.123,0.98-0.859,1.635-1.557,2.33s-1.352,1.389-1.639,2.371
		c-0.246,0.816,0.041,1.678,0.408,2.455c0.246,0.531,0.533,1.061,0.33,1.635c-0.492,1.35-3.727,2.738-4.668,2.738
		c-0.328,0-0.617-0.447-0.74-0.816c-0.369-1.229-0.287-2.535-0.041-3.766c0.861-0.938,1.516-2.039,1.885-3.27
		c0.492-1.633,0.246-3.393,1.025-4.907c2.047-3.477,7.287-10.426,8.314-11.451c0.449-0.451,1.555-0.695,2.008-0.408
		c2.211,1.433,3.521,3.189,5.648,4.294c1.147,0.572,2.581,1.432,3.605,0.611c1.023-0.818,1.188-6.296,1.842-7.687
		C201.918,265.373,205.237,262.18,207.525,259.606L207.525,259.606z"/>
	<polygon fill-rule="evenodd" clip-rule="evenodd" points="248.291,225.538 247.392,228.973 244.113,228.973 248.375,212.856 
		252.098,212.856 256.197,228.852 252.922,228.852 252.098,225.538 248.291,225.538 	"/>
	<path fill-rule="evenodd" clip-rule="evenodd" d="M239.688,217.489c0.041-1.063-0.287-2.451-1.146-2.779
		c-0.902-0.328-1.846-0.043-2.252,0.572c-0.696,1.145-0.696,2.701-0.657,5.068c0,1.434,0.039,3.441,0.325,4.378
		c0.697,2.168,2.541,2.293,3.443,0.941c0.453-0.654,0.453-1.922,0.41-3.066h-1.887v-2.375h4.877v8.671h-2.336v-1.186
		c-0.039,0.082-1.064,0.857-1.557,1.105c-0.818,0.365-2.375,0.365-3.645-0.166c-1.066-0.447-2.088-1.879-2.539-3.719
		c-0.449-1.926-0.246-4.419-0.246-6.544c0.043-2.248,1.229-4.747,2.867-5.686c1.147-0.654,3.28-0.654,4.631-0.164
		c1.637,0.572,2.904,2.946,2.658,4.948H239.688L239.688,217.489z"/>
	<path fill-rule="evenodd" clip-rule="evenodd" d="M184.823,213.102c1.311,0.816,2.008,2.331,1.764,4.092h-2.582
		c0-1.635-0.695-2.416-2.088-2.453c-0.861-0.043-1.924,0.939-1.924,1.676c-0.043,2.164,1.883,2.619,3.193,3.025
		c0.982,0.289,2.17,0.9,2.746,1.758c1.063,1.554,1.186,3.191,0.326,5.32c-0.408,1.02-1.965,2.246-3.277,2.533
		c-1.473,0.328-3.275,0.164-4.75-0.941c-1.188-0.9-1.721-2.658-1.475-4.254h2.906c0,0.777,0.123,1.35,0.451,1.842
		c0.246,0.328,0.697,0.859,1.475,0.902c1.313,0.08,2.375-0.984,2.254-2.334c-0.164-2.494-4.342-2.658-5.775-4.253
		c-1.721-1.963-1.188-5.111,0.205-6.383C180.196,211.834,182.819,211.834,184.823,213.102L184.823,213.102z"/>
	<path fill-rule="evenodd" clip-rule="evenodd" d="M267.518,223.766c0.039,0.613,0.084,2.783,0.162,4.176
		c0.043,0.406,0.451,0.939,0.451,0.979h-3.072c-0.41,0-0.449-0.736-0.49-1.35c-0.08-1.637,0.08-5.521-1.516-5.521h-1.967v6.832
		h-3.072v-15.953h5.529c2.787,0,4.18,1.6,4.18,3.764c0,1.434-0.043,3.109-1.682,3.805
		C266.902,221.313,267.393,222.542,267.518,223.766L267.518,223.766z"/>
	<path fill-rule="evenodd" clip-rule="evenodd" fill="#F9CA55" d="M263.307,215.235h-2.297v4.297h1.68
		C265.477,219.532,265.436,215.235,263.307,215.235L263.307,215.235z"/>
	<polygon fill-rule="evenodd" clip-rule="evenodd" points="194.163,228.948 191.09,228.948 191.09,215.493 187.569,215.493 
		187.569,212.793 197.726,212.793 197.726,215.493 194.163,215.493 194.163,228.948 	"/>
	<polygon fill-rule="evenodd" clip-rule="evenodd" points="213.935,228.948 213.935,215.493 210.412,215.493 210.412,212.793 
		220.608,212.793 220.608,215.493 217.007,215.493 217.007,228.948 213.935,228.948 	"/>
	<polygon fill-rule="evenodd" clip-rule="evenodd" points="221.987,212.795 232.187,212.795 232.187,215.54 228.582,215.54 
		228.582,228.954 225.511,228.954 225.511,215.54 221.987,215.54 221.987,212.795 	"/>
	<polygon fill-rule="evenodd" clip-rule="evenodd" points="275.268,215.54 275.268,228.997 272.197,228.997 272.197,215.54 
		268.672,215.54 268.672,212.801 278.832,212.801 278.832,215.54 275.268,215.54 	"/>
	<path fill-rule="evenodd" clip-rule="evenodd" d="M205.758,224.317v-11.494h2.988v11.207c0,6.707-9.746,6.707-9.746,0.205v-11.412
		h2.988v11.535C201.989,226.854,205.758,226.854,205.758,224.317L205.758,224.317z"/>
	<path fill="none" stroke="#000000" stroke-width="2.6689" stroke-miterlimit="2.6131" d="M212.652,236.385
		c0.902-0.778,2.17-1.844,3.647-2.782c1.31-0.859-0.166,1.104-0.246,1.92c-0.246,2.209-1.924,2.456-3.77,2.047
		C211.957,237.489,212.082,236.875,212.652,236.385"/>
	<polygon fill-rule="evenodd" clip-rule="evenodd" fill="#EB2E2E" points="289.668,287.943 367.891,287.902 371.375,244.717 
		289.668,244.758 289.668,287.943 	"/>
	<path fill-rule="evenodd" clip-rule="evenodd" fill="#EB2E2E" d="M223.698,422.455l-80.681-0.162
		c16.627,14.926,55.127,42.863,80.435,54.191L223.698,422.455L223.698,422.455z"/>
	<path fill-rule="evenodd" clip-rule="evenodd" d="M165.336,252.139v6.918c-3.195-2.375-18.023-4.09-27.154-0.534
		c-2.211,0.858-9.418,3.966-12.696,6.542l-9.212,7.281c-0.902,0.732-0.982,2.332-0.982,3.559c0,2.697-3.154,4.74-4.916,4.168
		c-1.434-0.488-3.398-0.775-5.201-0.367c-1.926,0.41-3.646-2.006-3.81-3.393c-0.247-1.719,1.106-3.967,1.187-4.703
		c0.084-0.695-0.369-3.433,2.17-5.113c1.148-0.736,2.748-0.695,3.893-0.082c0.328,0.205,0.738,0.248,1.105,0.162
		c0.408-0.162,1.516-1.143,1.801-1.391c0.125-1.631-0.121-4.21,0.043-5.64c0.367-2.784,0.531-4.377,1.393-7.079
		c0.736-2.33,2.336-5.725,3.521-7.646c2.13-3.477,6.347-6.83,9.501-6.545c-1.23,1.637-1.639,2.494-2.539,4.174
		c-1.68,3.066-3.236,8.136-3.971,11.572c-0.494,2.209-0.74,3.928-0.617,6.26c2.416-1.801,4.957-3.274,6.635-4.215
		c0.777-4.047,2.377-8.426,4.096-11.656c2.047-3.885,7.577-8.098,11.18-7.77c-3.398,3.684-5.815,8.795-6.717,12.064
		c-0.367,1.309-0.818,2.82-0.613,3.639c1.35-0.734,4.139-1.471,5.489-1.592c0.9-2.252,2.129-4.953,3.152-6.542
		c3.195-4.908,8.232-7.897,11.102-7.771c-2.254,3.023-4.182,5.766-5.572,9.814c-0.412,1.185-0.613,2.453-0.613,3.068
		c1.76-0.289,4.504-0.289,5.609-0.289c2.984-2.679,2.689-3.412,5.98-5.927c2.049-1.596,5.855-3.766,6.758-3.93v4.836
		c-1.559,1.393-4.711,4.388-5.328,5.943C161.363,250.449,164.064,251.279,165.336,252.139L165.336,252.139z"/>
	<polygon fill-rule="evenodd" clip-rule="evenodd" fill="#F9CA55" points="251.648,222.61 250.174,216.147 248.783,222.61 
		251.648,222.61 	"/>
	<polygon fill-rule="evenodd" clip-rule="evenodd" points="374.148,203.106 289.965,203.144 289.965,240.415 371.568,240.512 
		374.047,204.579 374.148,203.106 	"/>
	<path fill-rule="evenodd" clip-rule="evenodd" d="M378.021,151.644l0.75-12.153c-52.832-16.303-101.674-21.186-147.461-21.186
		l-0.018,33.135L378.021,151.644L378.021,151.644z"/>
	<path fill-rule="evenodd" clip-rule="evenodd" d="M173.133,328.615c-5.719-10.566-7.981-22.168-7.981-33.529l-77.692,0.082
		l2.417,33.453L173.133,328.615L173.133,328.615z"/>
	<path fill-rule="evenodd" clip-rule="evenodd" d="M223.407,416.816l0.014-34.865l-116.263-0.127
		c7.549,12.045,17.238,23.113,28.544,34.119c0.313,0.305,0.633,0.615,0.961,0.93L223.407,416.816L223.407,416.816z"/>
</g>
</svg>
